# xmcd
# Copyright (C) 1995-1998 Ti Kan
#
# Track frame offsets:
#       150
#       39186
#       69118
#       94284
#       103943
#       135080
#       184267
#       196474
#       218073
#
# Disc length: 3419 seconds
#
# Revision: 0
# Processed by: cddbd v1.5.2PL0 Copyright (c) Steve Scherf et al.
# Submitted via: CD-Import v1.0
#
DISCID=760d5909
DTITLE=Quetzal - 5:45 H
DYEAR=10
DGENRE=
TTITLE0=5:45h
TTITLE1=Histeric Afro
TTITLE2=Militär-, Langstrasse
TTITLE3=Skit 1
TTITLE4=Nkrumah
TTITLE5=Längi Zyti (Nostalgia)
TTITLE6=Skit 2
TTITLE7=Comme Les Chiens
TTITLE8=Orange
EXTD=
EXTT0=
EXTT1=
EXTT2=
EXTT3=
EXTT4=
EXTT5=
EXTT6=
EXTT7=
EXTT8=
PLAYORDER=
